<?xml version="1.0" encoding="UTF-8" standalone="no"?>
<!DOCTYPE svg PUBLIC "-//W3C//DTD SVG 1.1//EN" "http://www.w3.org/Graphics/SVG/1.1/DTD/svg11.dtd">
<svg width="100%" height="100%" viewBox="0 0 128 128" version="1.1" xmlns="http://www.w3.org/2000/svg" xmlns:xlink="http://www.w3.org/1999/xlink" xml:space="preserve" xmlns:serif="http://www.serif.com/" style="fill-rule:evenodd;clip-rule:evenodd;stroke-linejoin:round;stroke-miterlimit:2;">
    <g transform="matrix(0.117829,0,0,0.117829,-138.307,11.7498)">
        <g>
            <g transform="matrix(3.07156,0,0,3.12483,947.748,-330.851)">
                <path d="M251.42,242.013L233.718,242.013L231.957,239.737C231.957,239.737 228.083,239.24 226.439,242.013C224.795,244.786 224.208,249.482 224.208,249.482L234.657,249.482L241.35,256C241.35,256 249.398,250.864 251.42,242.013Z" style="fill:url(#_Radial1);"/>
            </g>
            <g transform="matrix(-3.07156,0,0,3.12483,2492.25,-330.851)">
                <path d="M251.42,242.013L233.718,242.013L231.957,239.737C231.957,239.737 228.083,239.24 226.439,242.013C224.795,244.786 224.208,249.482 224.208,249.482L234.657,249.482L241.35,256C241.35,256 249.398,250.864 251.42,242.013Z" style="fill:url(#_Radial2);"/>
            </g>
            <g transform="matrix(3.07156,0,0,3.12483,947.748,-330.851)">
                <path d="M288.955,223.682L288.955,177.5L288.421,176.936C287.092,175.531 283.931,174.204 279.498,173.265C270.297,171.318 255.234,170.522 242.015,171.067C233.098,171.435 225.015,172.425 220.069,174.038C217.545,174.861 215.758,175.912 214.825,177.022L214.368,177.566L214.368,223.682L217.448,225.324C217.448,225.324 223.665,221.264 227.521,220.859C237.489,219.811 266.615,219.737 276.473,220.77C280.119,221.151 285.798,225.272 285.798,225.272L288.955,223.682ZM286.962,178.27C280.483,171.424 222.731,170.691 216.361,178.27L216.361,223.682C216.361,223.682 223.13,219.35 227.309,218.911C237.363,217.854 266.741,217.78 276.684,218.822C280.687,219.241 286.962,223.682 286.962,223.682L286.962,178.27Z" style="fill:url(#_Radial3);"/>
            </g>
            <g transform="matrix(3.07156,0,0,3.12483,947.748,-330.851)">
                <path d="M244.089,179.421L258.752,179.421L258.752,173.021C259.422,173.048 260.09,173.077 260.752,173.11L260.752,218.132C260.092,218.122 259.425,218.114 258.752,218.107L258.752,213.037L244.089,213.037L244.089,218.154C243.415,218.165 242.747,218.178 242.089,218.192L242.089,212.51C242.013,212.37 241.97,212.208 241.97,212.037C241.97,211.866 242.013,211.705 242.089,211.564L242.089,207.602C242.013,207.461 241.97,207.3 241.97,207.129C241.97,206.958 242.013,206.797 242.089,206.656L242.089,173.025C242.751,172.998 243.417,172.974 244.089,172.953L244.089,179.421ZM244.089,208.129L244.089,211.037L258.752,211.037L258.752,208.129L244.089,208.129ZM244.089,202.948L244.089,206.129L258.752,206.129L258.752,202.948L244.089,202.948ZM244.089,197.442L244.089,200.948L258.752,200.948L258.752,197.442L244.089,197.442ZM244.089,192.433L244.089,195.442L258.752,195.442L258.752,192.433L244.089,192.433ZM244.089,186.927L244.089,190.433L258.752,190.433L258.752,186.927L244.089,186.927ZM244.089,181.421L244.089,184.927L258.752,184.927L258.752,181.421L244.089,181.421Z" style="fill:url(#_Radial4);"/>
            </g>
            <g transform="matrix(0.917905,0,0,0.917905,1225.07,-36.3219)">
                <path d="M538.935,494.955L538.94,494.955L538.858,494.958L538.935,494.955L538.924,494.954L538.833,494.958L538.848,494.959L538.734,494.966L538.833,494.958L538.832,494.958L538.646,494.969L538.223,495.009L537.84,495.064L537.396,495.153L536.791,495.316L536.443,495.437C535.795,495.679 535.309,495.988 534.96,496.347L534.923,496.332C535.276,495.992 535.754,495.697 536.381,495.458L536.478,495.423L536.478,495.421L536.381,495.458C535.689,495.714 535.045,496.061 534.462,496.485L534.45,496.493L534.132,496.74C533.52,497.234 533.118,497.753 532.884,498.282L532.849,498.27L532.847,498.27C533.073,497.804 533.429,497.344 533.941,496.897L534.045,496.807C533.504,497.256 533.019,497.779 532.603,498.371L532.597,498.377L532.443,498.603L532.275,498.875L532.156,499.082L532.158,499.085L532.088,499.218L532.086,499.219L532.072,499.242C531.538,500.288 531.464,501.238 531.674,502.081C531.719,502.429 531.801,502.774 531.918,503.11C531.4,502.061 531.298,500.784 532.053,499.274L532.156,499.082L532.156,499.08C532.156,499.08 514.599,530.566 488.642,550.23C461.92,570.473 435.77,584.702 435.77,584.702C435.769,584.702 435.769,584.703 435.768,584.703C433.724,585.816 432.258,587.761 431.753,590.03C431.246,592.304 431.748,594.686 433.126,596.56C433.126,596.559 492.229,676.971 492.229,676.971C493.748,679.038 496.158,680.258 498.726,680.258L579.662,680.258C582.23,680.258 584.639,679.038 586.159,676.971L645.262,596.559C646.641,594.685 647.142,592.302 646.634,590.027L646.634,590.025C646.126,587.757 644.663,585.815 642.62,584.703C642.619,584.703 642.619,584.702 642.618,584.702C642.618,584.702 616.468,570.473 589.746,550.23C564.174,530.857 546.754,500.01 546.244,499.101L546.045,498.762L545.851,498.466L545.852,498.465L545.745,498.314C545.337,497.744 544.865,497.241 544.341,496.806L544.328,496.795L544.333,496.8L543.913,496.476C543.338,496.059 542.702,495.717 542.018,495.463L541.513,495.291L541.22,495.209L540.73,495.098L540.123,495.004L539.419,494.951L539.181,494.95L538.989,494.953L538.998,494.954L538.948,494.955L538.989,494.953L538.982,494.953L538.935,494.955ZM531.131,580.827L531.131,664.133L502.806,664.133L476.041,627.72C487.686,620.152 512.007,603.023 531.131,580.828L531.131,580.827ZM547.256,580.828C566.378,603.021 590.702,620.152 602.346,627.72L575.582,664.133L547.256,664.133L547.256,580.827L547.256,580.828ZM531.13,553.824C513.044,583.136 479.587,606.34 466.485,614.72L451.477,594.299C461.548,588.389 479.831,577.133 498.38,563.082C511.607,553.061 522.868,540.261 531.131,529.419L531.131,553.823L531.13,553.824ZM547.256,553.824L547.256,529.417C555.519,540.26 566.78,553.061 580.008,563.082C598.556,577.133 616.839,588.389 626.91,594.299L611.901,614.72C598.799,606.339 565.339,583.134 547.256,553.824ZM544.361,506.083C545.098,505.643 545.727,505.019 546.177,504.253C547.069,502.732 547.129,500.869 546.346,499.301C546.444,499.533 546.376,499.899 546.196,500.348C546.265,501.085 546.174,501.842 545.913,502.569C545.514,503.68 544.763,504.592 543.813,505.197C543.985,505.479 544.168,505.775 544.361,506.083ZM534.436,505.423C533.187,504.553 531.858,503.262 531.635,501.612L531.644,501.804L531.674,502.081C532.037,503.545 533.25,504.693 534.399,505.484L534.436,505.423ZM543.459,504.618C544.512,503.242 545.732,501.516 546.196,500.348C546.178,500.143 546.148,499.94 546.106,499.739C545.952,500.294 545.598,501.014 545.151,501.781C544.864,502.771 544.295,503.629 543.543,504.273L543.385,504.497L543.459,504.618ZM543.347,504.434L543.543,504.273C544.093,503.485 544.675,502.606 545.151,501.781L545.236,501.456C544.696,502.432 543.989,503.508 543.346,504.433L543.347,504.434ZM538.111,500.368L538.083,500.248C538.048,500.075 538.012,499.903 537.977,499.73L537.957,499.612C537.908,499.101 537.851,498.601 537.784,498.135L537.775,497.747C537.781,497.52 537.78,497.535 537.795,497.296L537.811,497.144C537.771,496.93 537.728,496.729 537.679,496.544L537.702,496.466L537.634,496.228L537.662,496.141C537.708,496.041 537.759,495.947 537.816,495.858L537.798,495.809L537.812,495.779L537.798,495.741L537.778,495.701L537.945,495.523L537.926,495.483L537.895,495.433C537.956,495.385 538.021,495.341 538.091,495.301L538.073,495.276L538.211,495.203L538.194,495.184L538.156,495.152L538.301,495.102L538.289,495.095L538.45,495.051L538.446,495.048L538.435,495.044L538.472,495.036L538.459,495.031L538.769,494.98L538.764,494.98L538.923,494.965L538.911,494.962L538.892,494.961L538.978,494.957L538.943,494.955L538.871,494.96L538.892,494.961L538.743,494.975L538.764,494.98C538.654,494.991 538.548,495.007 538.447,495.026L538.459,495.031L538.422,495.038L538.435,495.044L538.272,495.085L538.289,495.095L538.146,495.144L538.156,495.152L538.012,495.21L538.072,495.275L538.073,495.276L537.876,495.403L537.895,495.433L537.721,495.587L537.778,495.701L537.762,495.721L537.771,495.738L537.798,495.809L537.688,496.063L537.662,496.141L537.629,496.214L537.634,496.228L537.614,496.303L537.679,496.544L537.599,496.91L537.585,497.014C537.659,497.354 537.725,497.732 537.784,498.135C537.804,498.606 537.866,499.105 537.957,499.612L538.016,500.242L538.028,500.404L538.042,500.397L538.111,500.368ZM532.847,498.27C532.753,498.248 532.671,498.279 532.603,498.371L532.494,498.532C532.567,498.437 532.658,498.415 532.763,498.456L532.847,498.27ZM544.341,496.807C544.467,496.913 544.533,497.091 544.548,497.326C544.74,497.368 544.944,497.476 545.159,497.661C544.924,497.35 544.65,497.063 544.341,496.807ZM534.923,496.332C534.827,496.292 534.73,496.301 534.634,496.365L534.447,496.496L534.46,496.487C534.567,496.413 534.676,496.412 534.786,496.473L534.923,496.332ZM542.208,495.54C542.306,495.586 542.384,495.667 542.442,495.779C542.6,495.805 542.768,495.854 542.947,495.928C542.715,495.781 542.468,495.65 542.208,495.54ZM538.79,494.963L538.726,494.969L538.871,494.96L538.85,494.959L538.79,494.963Z" style="fill:url(#_Radial5);"/>
            </g>
            <g transform="matrix(3.07156,0,0,3.12483,947.748,-330.851)">
                <path d="M264.852,161.896C267.546,164.59 269.045,167.465 268.198,168.312C267.351,169.159 264.476,167.66 261.782,164.966C259.088,162.272 257.589,159.397 258.436,158.55C259.283,157.703 262.158,159.202 264.852,161.896ZM237.793,161.297C235.099,163.99 233.599,166.865 234.447,167.713C235.294,168.56 238.169,167.06 240.863,164.367C243.556,161.673 245.056,158.798 244.209,157.95C243.361,157.103 240.487,158.603 237.793,161.297ZM251.322,141.882C253.904,141.882 256,147.499 256,154.416C256,161.333 253.904,166.949 251.322,166.949C248.741,166.949 246.645,161.333 246.645,154.416C246.645,147.499 248.741,141.882 251.322,141.882ZM266.655,150.074C270.464,150.074 273.557,151.047 273.557,152.245C273.557,153.443 270.464,154.416 266.655,154.416C262.845,154.416 259.752,153.443 259.752,152.245C259.752,151.047 262.845,150.074 266.655,150.074ZM236.186,150.074C239.996,150.074 243.089,151.047 243.089,152.245C243.089,153.443 239.996,154.416 236.186,154.416C232.377,154.416 229.284,153.443 229.284,152.245C229.284,151.047 232.377,150.074 236.186,150.074ZM260.658,139.938C257.964,142.632 256.464,145.507 257.312,146.354C258.159,147.201 261.034,145.702 263.728,143.008C266.421,140.314 267.921,137.439 267.074,136.592C266.226,135.745 263.351,137.244 260.658,139.938ZM242.183,139.938C244.877,142.632 246.377,145.507 245.529,146.354C244.682,147.201 241.807,145.702 239.113,143.008C236.419,140.314 234.92,137.439 235.767,136.592C236.614,135.745 239.489,137.244 242.183,139.938ZM249.131,131.766C249.131,127.956 250.103,124.863 251.301,124.863C252.5,124.863 253.472,127.956 253.472,131.766C253.472,135.575 252.5,138.668 251.301,138.668C250.103,138.668 249.131,135.575 249.131,131.766Z" style="fill:url(#_Radial6);"/>
            </g>
            <g transform="matrix(3.07156,0,0,3.12483,940.713,-342.391)">
                <rect x="251.42" y="164.258" width="4.58" height="83.593" style="fill:url(#_Radial7);"/>
            </g>
        </g>
        <g transform="matrix(1.10109,0,0,1.10109,1133.19,-128.921)">
            <path d="M531.549,750.506C413.495,610.952 294.106,524.729 173.115,502.6L148.714,395.733C319.518,431.942 532.938,711.619 532.938,711.619L533.093,711.416C539.586,702.952 749.023,431.377 917.162,395.733L892.761,502.6C771.296,524.816 651.446,611.628 532.938,752.15L531.549,750.506Z" style="fill:url(#_Radial8);"/>
        </g>
        <g transform="matrix(1.10109,0,0,1.10109,1126.15,-67.6227)">
            <path d="M723.566,671.396C723.208,671.241 722.601,670.961 722.204,670.716C720.576,669.715 718.862,668.272 717.11,666.614C707.442,657.464 697.34,642.141 697.34,642.141L684.118,642.022C684.118,642.022 673.53,657.455 663.661,666.844C661.838,668.578 660.06,670.094 658.391,671.169C657.963,671.445 657.319,671.763 656.927,671.947C656.48,671.733 655.656,671.322 655.125,670.961C653.859,670.099 652.555,668.992 651.235,667.748C642.203,659.229 632.942,644.78 632.942,644.78L619.151,645.435C619.151,645.435 614.287,654.846 607.429,662.613C603.888,666.624 600.034,670.617 595.78,670.961L587.829,671.604L589.115,687.505L597.066,686.862C603.161,686.369 609.411,682.895 614.917,677.781C619.465,673.556 623.549,668.253 626.708,663.618C630.538,668.731 635.45,674.789 640.289,679.353C646.338,685.058 652.775,688.205 657.5,688.018C661.999,687.839 668.449,684.307 674.656,678.402C680.334,673.001 686.239,665.795 690.59,660.138C694.817,665.778 700.553,672.908 706.144,678.2C712.387,684.109 718.96,687.496 723.693,687.456C728.376,687.416 734.954,683.943 741.233,677.989C746.618,672.883 752.161,666.119 756.4,660.569C758.741,664.159 761.627,668.18 764.906,671.917C771.816,679.795 780.539,686.087 789.371,686.858L797.317,687.552L798.705,671.659L790.759,670.966C785.569,670.513 780.958,666.025 776.899,661.397C769.369,652.814 764.289,642.461 764.289,642.461L750.506,641.529C750.506,641.529 740.11,657.07 730.257,666.413C728.455,668.121 726.693,669.61 725.028,670.652C724.599,670.921 723.941,671.23 723.566,671.396Z" style="fill:url(#_Radial9);"/>
        </g>
        <g transform="matrix(1.10109,0,0,1.10109,782.071,-67.6227)">
            <path d="M723.566,671.396C723.208,671.241 722.601,670.961 722.204,670.716C720.576,669.715 718.862,668.272 717.11,666.614C707.442,657.464 697.34,642.141 697.34,642.141L684.118,642.022C684.118,642.022 673.53,657.455 663.661,666.844C661.838,668.578 660.06,670.094 658.391,671.169C657.963,671.445 657.319,671.763 656.927,671.947C656.48,671.733 655.656,671.322 655.125,670.961C653.859,670.099 652.555,668.992 651.235,667.748C642.203,659.229 632.942,644.78 632.942,644.78L619.151,645.435C619.151,645.435 614.287,654.846 607.429,662.613C603.888,666.624 600.034,670.617 595.78,670.961L587.829,671.604L589.115,687.505L597.066,686.862C603.161,686.369 609.411,682.895 614.917,677.781C619.465,673.556 623.549,668.253 626.708,663.618C630.538,668.731 635.45,674.789 640.289,679.353C646.338,685.058 652.775,688.205 657.5,688.018C661.999,687.839 668.449,684.307 674.656,678.402C680.334,673.001 686.239,665.795 690.59,660.138C694.817,665.778 700.553,672.908 706.144,678.2C712.387,684.109 718.96,687.496 723.693,687.456C728.376,687.416 734.954,683.943 741.233,677.989C746.618,672.883 752.161,666.119 756.4,660.569C758.741,664.159 761.627,668.18 764.906,671.917C771.816,679.795 780.539,686.087 789.371,686.858L797.317,687.552L798.705,671.659L790.759,670.966C785.569,670.513 780.958,666.025 776.899,661.397C769.369,652.814 764.289,642.461 764.289,642.461L750.506,641.529C750.506,641.529 740.11,657.07 730.257,666.413C728.455,668.121 726.693,669.61 725.028,670.652C724.599,670.921 723.941,671.23 723.566,671.396Z" style="fill:url(#_Radial10);"/>
        </g>
        <path d="M2068.66,298.943C2053.05,305.984 2037.56,313.75 2022.3,322.276C2007.32,330.643 1992.55,339.742 1978.1,349.608C1937.38,350.374 1871.17,368.547 1849.19,473.148C1849.19,473.149 1849.19,473.15 1849.18,473.143C1848.42,474.172 1847.04,474.53 1845.88,474.002C1844.71,473.474 1844.07,472.204 1844.34,470.952C1849.76,445.747 1857.32,423.293 1866.59,403.31C1895.88,363.141 1989.45,258.79 2178.55,245.524C2209.41,246.764 2229.3,250.409 2229.3,250.409C2209.65,253.697 2189.63,257.962 2169.45,263.286L2147.18,259.352L2159.29,266.055C2133.69,273.249 2107.9,282.161 2082.36,292.958L2053.42,294.733L2068.66,298.943ZM2126.26,246.15C2061.02,257.251 2009.04,279.309 1968.62,303.964C1928.19,328.619 1899.34,355.87 1880.36,377.359C1940.08,278.483 2046.58,251.357 2126.26,246.15Z" style="fill:url(#_Radial11);"/>
        <g transform="matrix(-1,0,0,1,3433.9,0)">
            <path d="M2068.66,298.943C2053.05,305.984 2037.56,313.75 2022.3,322.276C2007.32,330.643 1992.55,339.742 1978.1,349.608C1937.38,350.374 1871.17,368.547 1849.19,473.148C1849.19,473.149 1849.19,473.15 1849.18,473.143C1848.42,474.172 1847.04,474.53 1845.88,474.002C1844.71,473.474 1844.07,472.204 1844.34,470.952C1849.76,445.747 1857.32,423.293 1866.59,403.31C1895.88,363.141 1989.45,258.79 2178.55,245.524C2209.41,246.764 2229.3,250.409 2229.3,250.409C2209.65,253.697 2189.63,257.962 2169.45,263.286L2147.18,259.352L2159.29,266.055C2133.69,273.249 2107.9,282.161 2082.36,292.958L2053.42,294.733L2068.66,298.943ZM2126.26,246.15C2061.02,257.251 2009.04,279.309 1968.62,303.964C1928.19,328.619 1899.34,355.87 1880.36,377.359C1940.08,278.483 2046.58,251.357 2126.26,246.15Z" style="fill:url(#_Radial12);"/>
        </g>
        <g transform="matrix(1,0,0,1,-3.04761,-98.9686)">
            <g id="g260">
                <g id="text113">
                    <path id="path223" d="M1379.01,926.525C1380.57,926.525 1382.1,926.467 1383.61,926.352C1385.16,926.237 1386.89,926.035 1388.79,925.747C1390.73,925.462 1393.04,925.035 1395.72,924.464C1396.62,924.272 1397.22,923.403 1397.08,922.488L1396.15,916.673C1396.08,916.216 1395.82,915.807 1395.45,915.536C1395.07,915.265 1394.61,915.155 1394.15,915.229C1391.43,915.673 1389.05,916.006 1386.99,916.228L1386.99,916.229C1385.04,916.445 1383.39,916.555 1382.04,916.555C1378.11,916.555 1375.2,915.908 1373.36,914.415C1371.64,913.025 1370.88,910.81 1370.88,907.844C1370.88,906.192 1371.31,904.634 1372.16,903.17C1373.06,901.664 1374.43,900.274 1376.23,898.972C1376.25,898.959 1376.27,898.946 1376.29,898.932C1377.49,897.991 1378.98,897.107 1380.76,896.271C1380.77,896.268 1380.77,896.264 1380.78,896.261C1382.69,895.332 1384.88,894.431 1387.34,893.556C1389.53,892.794 1391.92,892.053 1394.53,891.332C1395.22,892.449 1396.01,893.464 1396.88,894.377C1397.99,895.549 1399.34,896.78 1400.92,898.068C1401.28,898.365 1401.75,898.502 1402.22,898.447C1402.68,898.393 1403.11,898.152 1403.39,897.779L1407.86,891.963C1408.16,891.581 1408.28,891.095 1408.2,890.619C1408.12,890.144 1407.85,889.723 1407.45,889.455C1406.12,888.568 1404.98,887.46 1404.04,886.131C1403.05,884.67 1402.23,882.932 1401.56,880.913C1400.86,878.804 1400.29,876.342 1399.86,873.529C1398.89,867.109 1396.62,862.348 1393.16,859.195C1389.72,855.947 1385.1,854.27 1379.26,854.27C1375.96,854.27 1372.56,854.768 1369.08,855.771L1369.08,855.773C1365.63,856.784 1362.78,858.043 1360.52,859.529C1359.78,860.016 1359.52,860.98 1359.92,861.77L1362.87,867.586C1363.09,868.004 1363.46,868.319 1363.9,868.459C1364.35,868.599 1364.84,868.553 1365.25,868.331C1367.34,867.207 1369.72,866.273 1372.39,865.524C1372.4,865.521 1372.42,865.518 1372.43,865.515C1375.04,864.73 1377.29,864.324 1379.17,864.324C1382.06,864.324 1384.37,865.207 1386.07,867.052C1386.08,867.057 1386.08,867.063 1386.09,867.068C1387.92,868.999 1389.1,871.996 1389.76,876.01C1390.05,877.843 1390.34,879.419 1390.62,880.738C1390.62,880.743 1390.62,880.748 1390.63,880.754C1390.74,881.258 1390.85,881.721 1390.96,882.145C1386.14,883.632 1382.01,885.12 1378.57,886.607C1374.72,888.241 1371.57,889.97 1369.12,891.779C1366.59,893.648 1364.61,895.644 1363.16,897.753C1362,899.352 1361.13,901.061 1360.57,902.861C1360.02,904.654 1359.74,906.54 1359.74,908.518C1359.74,912.287 1360.53,915.494 1362.07,918.151C1363.65,920.932 1365.9,923.02 1368.81,924.413C1371.66,925.808 1375.06,926.525 1379.01,926.525ZM1377.29,924.735L1377.33,924.738C1377.64,924.837 1378.99,926.509 1379.01,926.525C1379,926.525 1378.56,926.483 1378.13,926.245C1377.7,926.007 1377.27,925.573 1377.27,924.785C1377.27,924.757 1377.27,924.741 1377.29,924.735ZM1458.23,916.327C1460.34,916.327 1461.91,915.605 1463.01,914.288C1464.09,913.111 1464.69,911.531 1464.69,909.53C1464.69,907.538 1464.1,905.928 1463,904.673C1461.9,903.428 1460.34,902.733 1458.23,902.733C1456.24,902.733 1454.69,903.359 1453.55,904.507C1453.53,904.52 1453.52,904.533 1453.51,904.547C1452.39,905.733 1451.77,907.379 1451.77,909.53C1451.77,911.701 1452.41,913.323 1453.53,914.451C1454.68,915.67 1456.24,916.327 1458.23,916.327ZM1699.11,916.327C1701.22,916.327 1702.79,915.605 1703.89,914.288C1704.98,913.111 1705.57,911.531 1705.57,909.53C1705.57,907.538 1704.98,905.928 1703.88,904.673C1702.79,903.428 1701.22,902.733 1699.11,902.733C1697.12,902.733 1695.57,903.359 1694.43,904.507C1694.41,904.52 1694.4,904.533 1694.39,904.547C1693.28,905.733 1692.65,907.379 1692.65,909.53C1692.65,911.701 1693.29,913.323 1694.41,914.451C1695.56,915.67 1697.12,916.327 1699.11,916.327ZM1684.53,916.327C1686.53,916.327 1688.09,915.669 1689.24,914.446C1690.35,913.321 1690.99,911.7 1690.99,909.53C1690.99,907.379 1690.37,905.733 1689.26,904.547C1689.24,904.533 1689.23,904.52 1689.22,904.507C1688.07,903.359 1686.52,902.733 1684.53,902.733C1682.81,902.733 1681.32,903.264 1680.05,904.31C1680.04,904.321 1680.03,904.332 1680.01,904.343C1678.8,905.405 1678.07,907.104 1678.07,909.53C1678.07,911.956 1678.8,913.655 1680.01,914.717C1680.03,914.728 1680.04,914.739 1680.05,914.75C1681.32,915.796 1682.81,916.327 1684.53,916.327ZM1917.05,889.416L1901.36,889.416C1900.37,883.454 1898.87,878.081 1896.85,873.296C1894.69,867.996 1891.92,863.426 1888.54,859.581C1885.14,855.713 1881.18,852.578 1876.67,850.176C1876.24,849.946 1875.73,849.908 1875.27,850.072C1874.81,850.236 1874.44,850.586 1874.25,851.036L1871.55,857.442C1871.23,858.205 1871.49,859.089 1872.18,859.555C1875.75,861.988 1878.78,864.688 1881.26,867.662C1883.74,870.621 1885.75,873.958 1887.31,877.671C1887.32,877.676 1887.32,877.682 1887.32,877.687C1888.19,879.688 1888.92,881.825 1889.51,884.096C1889.95,885.795 1890.34,887.568 1890.67,889.416L1864.64,889.416C1863.68,889.416 1862.9,890.195 1862.9,891.156L1862.9,897.73C1862.9,898.691 1863.68,899.47 1864.64,899.47L1986.94,899.47C1989.84,899.47 1992.66,899.114 1995.39,898.403C1995.39,898.401 1995.4,898.398 1995.41,898.396C1997.89,897.711 2000.3,896.743 2002.63,895.493C2005.07,896.745 2007.55,897.713 2010.08,898.399C2010.1,898.402 2010.11,898.406 2010.12,898.409C2013.03,899.12 2015.72,899.47 2018.21,899.47L2051.33,899.47C2055.42,899.47 2059.05,898.541 2062.23,896.709C2062.24,896.705 2062.24,896.701 2062.25,896.696C2065.45,894.788 2067.95,892.084 2069.74,888.574C2069.74,888.563 2069.75,888.552 2069.76,888.541C2070.6,886.788 2071.24,884.915 2071.66,882.92L2071.66,882.91C2072.08,880.892 2072.29,878.696 2072.29,876.322C2072.29,872.437 2071.49,868.949 2069.91,865.852C2068.35,862.677 2066.11,860.221 2063.18,858.476C2063.17,858.469 2063.15,858.462 2063.14,858.455C2060.2,856.798 2056.82,855.956 2053.02,855.956C2049.94,855.956 2046.96,856.498 2044.06,857.584C2044.06,857.585 2044.06,857.586 2044.05,857.588C2041.23,858.67 2038.7,860.145 2036.48,862.009C2036.3,862.158 2036.15,862.341 2036.05,862.547C2034.97,864.642 2034.16,866.887 2033.62,869.282C2033.09,871.651 2032.82,874.138 2032.82,876.744C2032.82,878.933 2033.08,881.299 2033.62,883.843L2033.62,883.851C2033.99,885.601 2034.52,887.456 2035.19,889.416L2017.87,889.416C2016.42,889.416 2014.96,889.288 2013.51,889.031C2013.08,888.935 2012.66,888.833 2012.24,888.723C2014.4,886.903 2016.32,884.86 2018,882.592C2020.42,879.407 2022.24,875.927 2023.48,872.153C2024.78,868.322 2025.43,864.374 2025.43,860.309C2025.43,859.736 2025.14,859.199 2024.67,858.875C2021.84,856.928 2018.54,855.36 2014.77,854.181C2011,853.002 2007.26,852.416 2003.54,852.416C2000.74,852.416 1997.94,852.831 1995.14,853.665C1992.42,854.433 1989.8,855.553 1987.26,857.027C1984.73,858.439 1982.38,860.146 1980.2,862.146C1979.77,862.544 1979.56,863.133 1979.66,863.713C1980.19,866.884 1981.27,870.263 1982.91,873.846C1984.54,877.392 1986.52,880.676 1988.84,883.699C1990.01,885.279 1991.19,886.659 1992.37,887.835C1992.7,888.164 1993.02,888.479 1993.35,888.781C1992.96,888.87 1992.55,888.948 1992.13,889.018C1990.53,889.285 1988.77,889.416 1986.86,889.416L1968.79,889.416L1968.79,873.962C1968.79,864.432 1966.07,857.069 1960.77,851.826C1955.54,846.59 1948.09,843.903 1938.39,843.903C1936.19,843.903 1934.05,844.019 1931.97,844.25C1929.9,844.423 1927.87,844.713 1925.9,845.119C1925.9,845.12 1925.9,845.12 1925.89,845.121C1923.98,845.527 1922.12,846.02 1920.33,846.6C1919.43,846.891 1918.92,847.847 1919.19,848.754L1921.13,855.244C1921.27,855.691 1921.57,856.066 1921.99,856.284C1922.4,856.503 1922.88,856.546 1923.33,856.404C1925.71,855.645 1928.15,855.076 1930.65,854.696C1930.66,854.694 1930.67,854.693 1930.68,854.69C1933.17,854.258 1935.74,854.042 1938.39,854.042C1945.21,854.042 1950.24,855.612 1953.39,858.971C1953.4,858.978 1953.4,858.984 1953.41,858.991C1956.64,862.322 1958.14,867.558 1958.14,874.637L1958.14,889.416L1950.58,889.416L1950.58,880.031C1950.58,875.689 1949.89,872.106 1948.57,869.271C1947.23,866.228 1945.18,863.943 1942.44,862.413C1939.8,860.938 1936.49,860.17 1932.49,860.17C1928.97,860.17 1925.8,860.981 1922.95,862.586C1922.95,862.589 1922.95,862.592 1922.94,862.595C1920.15,864.207 1917.92,866.437 1916.24,869.289L1916.24,869.299C1914.63,872.075 1913.81,875.34 1913.81,879.104C1913.81,882.032 1914.41,884.678 1915.6,887.046C1916.03,887.909 1916.51,888.698 1917.05,889.415L1917.05,889.416ZM1622.25,899.47L1786.85,899.47C1790.04,899.47 1792.75,898.854 1795,897.668C1795,897.665 1795.01,897.662 1795.01,897.66C1796.7,896.749 1798.13,895.652 1799.32,894.376C1801.28,896.113 1803.21,897.343 1805.09,898.085C1807.42,899.005 1809.97,899.47 1812.73,899.47L1825.03,899.47C1825.99,899.47 1826.77,898.691 1826.77,897.73L1826.77,856.853C1826.77,855.892 1825.99,855.113 1825.03,855.113L1817.87,855.113C1816.91,855.113 1816.13,855.892 1816.13,856.853L1816.13,889.416L1812.73,889.416C1810.52,889.416 1808.68,889.044 1807.23,888.236C1805.88,887.393 1804.66,886.006 1803.51,884.105L1803.51,883.327C1803.57,882.791 1803.59,882.282 1803.59,881.801L1803.59,863.427C1803.59,862.466 1802.82,861.687 1801.85,861.687L1794.69,861.687C1793.73,861.687 1792.95,862.466 1792.95,863.427L1792.95,881.379C1792.95,883.832 1792.36,885.828 1791.08,887.337C1789.89,888.752 1788.22,889.416 1786.09,889.416L1778.73,889.416L1778.73,863.427C1778.73,862.466 1777.95,861.687 1776.99,861.687L1769.83,861.687C1768.87,861.687 1768.09,862.466 1768.09,863.427L1768.09,889.416L1751.42,889.416L1751.42,856.853C1751.42,855.892 1750.64,855.113 1749.68,855.113L1738.64,855.113C1733.62,855.113 1729.26,856.057 1725.56,857.909C1725.55,857.911 1725.55,857.913 1725.55,857.914C1721.81,859.812 1718.91,862.537 1716.83,866.087C1716.83,866.09 1716.83,866.092 1716.82,866.095C1714.83,869.543 1713.81,873.651 1713.81,878.429C1713.81,880.066 1713.99,881.733 1714.35,883.43C1714.35,883.434 1714.35,883.438 1714.36,883.443C1714.72,885.072 1715.23,886.64 1715.89,888.149C1715.9,888.166 1715.91,888.184 1715.92,888.201C1716.12,888.619 1716.33,889.024 1716.56,889.416L1697.06,889.416L1697.06,856.853C1697.06,855.892 1696.28,855.113 1695.32,855.113L1687.82,855.113C1686.86,855.113 1686.08,855.892 1686.08,856.853L1686.08,889.416L1665.79,889.416L1665.79,856.853C1665.79,855.892 1665.01,855.113 1664.05,855.113L1656.55,855.113C1655.59,855.113 1654.81,855.892 1654.81,856.853L1654.81,889.416L1638.4,889.416L1638.4,851.543C1638.4,850.582 1637.62,849.803 1636.66,849.803L1629.5,849.803C1628.53,849.803 1627.76,850.582 1627.76,851.543L1627.76,855.113L1623.93,855.113C1618.91,855.113 1614.56,856.056 1610.85,857.907C1607.12,859.746 1604.21,862.414 1602.12,865.907C1602.12,865.913 1602.12,865.92 1602.11,865.927C1600.12,869.374 1599.1,873.482 1599.1,878.261C1599.1,882.703 1600.03,886.501 1601.86,889.666C1601.86,889.67 1601.87,889.674 1601.87,889.679C1603.72,892.833 1606.41,895.285 1609.93,897.017C1609.94,897.02 1609.95,897.024 1609.95,897.027C1613.37,898.643 1617.46,899.47 1622.25,899.47ZM1420.39,899.47L1533.92,899.47C1534.88,899.47 1535.66,898.691 1535.66,897.73L1535.66,833.675C1535.66,832.714 1534.88,831.935 1533.92,831.935L1526.42,831.935C1525.46,831.935 1524.68,832.714 1524.68,833.675L1524.68,889.416L1506.92,889.416L1506.92,856.853C1506.92,855.892 1506.14,855.113 1505.18,855.113L1497.68,855.113C1496.71,855.113 1495.94,855.892 1495.94,856.853L1495.94,889.416L1482.51,889.416C1481.91,888.701 1481.34,887.8 1480.8,886.721C1480.1,885.159 1479.47,883.327 1478.88,881.208C1478.33,878.941 1477.84,876.386 1477.4,873.529C1477.4,873.522 1477.4,873.515 1477.39,873.508C1476.87,870.354 1476.22,867.727 1475.46,865.624C1474.65,863.317 1473.61,861.453 1472.36,860.017C1471.11,858.514 1469.63,857.287 1467.93,856.343C1467.92,856.342 1467.92,856.341 1467.92,856.34C1466.65,855.643 1465.2,855.129 1463.55,854.811C1462.06,854.454 1460.36,854.27 1458.49,854.27C1455.53,854.27 1452.76,854.596 1450.16,855.244C1447.5,855.85 1444.88,856.992 1442.28,858.682C1441.54,859.167 1441.28,860.135 1441.68,860.927L1444.63,866.743C1444.84,867.158 1445.21,867.472 1445.65,867.614C1446.1,867.755 1446.58,867.712 1446.99,867.495C1449.01,866.435 1450.97,865.636 1452.88,865.105C1454.8,864.587 1456.64,864.324 1458.4,864.324C1459.66,864.324 1460.78,864.522 1461.76,864.942C1461.78,864.952 1461.8,864.96 1461.83,864.969C1462.69,865.3 1463.41,865.864 1464,866.651C1464.02,866.679 1464.04,866.706 1464.06,866.732C1464.78,867.601 1465.37,868.767 1465.85,870.214C1465.86,870.231 1465.86,870.247 1465.87,870.263C1466.45,871.861 1466.93,873.781 1467.3,876.018C1467.76,878.763 1468.25,881.192 1468.76,883.308C1468.77,883.326 1468.77,883.344 1468.78,883.362C1469.36,885.478 1469.98,887.269 1470.63,888.739C1470.64,888.765 1470.65,888.79 1470.67,888.816C1470.77,889.022 1470.87,889.222 1470.98,889.416L1429.63,889.416L1429.63,833.675C1429.63,832.714 1428.85,831.935 1427.89,831.935L1420.39,831.935C1419.43,831.935 1418.65,832.714 1418.65,833.675L1418.65,897.73C1418.65,898.691 1419.43,899.47 1420.39,899.47ZM1550.77,831.935C1549.81,831.935 1549.03,832.714 1549.03,833.675L1549.03,897.73C1549.03,898.691 1549.81,899.47 1550.77,899.47L1558.28,899.47C1559.24,899.47 1560.02,898.691 1560.02,897.73L1560.02,833.675C1560.02,832.714 1559.24,831.935 1558.28,831.935L1550.77,831.935ZM1934.77,889.416C1932.78,889.416 1931,889.017 1929.45,888.195C1928,887.399 1926.86,886.284 1926.02,884.848C1925.19,883.274 1924.79,881.446 1924.79,879.357C1924.79,876.677 1925.38,874.585 1926.69,873.123C1928.01,871.717 1929.84,871.067 1932.15,871.067C1934.69,871.067 1936.62,871.759 1937.89,873.299C1937.9,873.306 1937.9,873.314 1937.91,873.322C1939.33,874.989 1939.94,877.666 1939.94,881.295L1939.94,889.416L1934.77,889.416ZM2042.18,877.018L2043.88,875.311C2043.88,873.907 2043.94,872.611 2044.05,871.423C2044.13,870.51 2044.32,869.614 2044.61,868.736C2045.72,867.96 2046.96,867.326 2048.31,866.831C2048.32,866.827 2048.33,866.824 2048.34,866.82C2049.87,866.225 2051.43,865.926 2053.02,865.926C2055.25,865.926 2057.14,866.859 2058.69,868.684C2058.69,868.69 2058.7,868.697 2058.7,868.703C2060.41,870.65 2061.22,873.171 2061.22,876.238C2061.22,879.183 2060.83,881.692 2060,883.76C2059.24,885.603 2058.15,887.032 2056.68,888.026C2055.26,888.974 2053.47,889.416 2051.33,889.416L2046.52,889.416C2045.57,887.026 2044.91,884.78 2044.53,882.676C2044.1,880.248 2043.88,877.793 2043.88,875.311L2042.18,877.018ZM1740.78,889.416L1734.6,889.416C1732.36,889.416 1730.47,889.031 1728.96,888.206C1727.6,887.432 1726.59,886.295 1725.9,884.804C1725.14,883.08 1724.79,880.954 1724.79,878.429C1724.79,875.62 1725.32,873.206 1726.42,871.197C1727.54,869.251 1729.12,867.773 1731.16,866.753C1733.3,865.682 1735.88,865.167 1738.89,865.167L1740.78,865.167L1740.78,889.416ZM1627.76,889.416L1622.08,889.416C1618.22,889.416 1615.2,888.522 1613.07,886.6C1611.03,884.646 1610.08,881.823 1610.08,878.177C1610.08,874.067 1611.23,870.851 1613.66,868.573C1616.13,866.256 1619.65,865.167 1624.18,865.167L1627.76,865.167L1627.76,889.416ZM2002.76,883.519C2001.05,882.153 1999.48,880.616 1998.05,878.91C1996.34,876.879 1994.89,874.716 1993.72,872.418C1992.74,870.451 1991.98,868.446 1991.44,866.404C1992.6,865.675 1993.76,865.041 1994.91,864.504C1996.42,863.829 1997.9,863.334 1999.36,863.021C1999.37,863.018 1999.39,863.015 1999.4,863.011C2000.89,862.652 2002.36,862.47 2003.8,862.47C2005.73,862.47 2007.64,862.706 2009.53,863.177C2011.07,863.563 2012.6,864.126 2014.11,864.864C2013.73,868.715 2012.64,872.152 2010.82,875.171C2010.82,875.173 2010.82,875.175 2010.81,875.178C2009.02,878.185 2006.33,880.958 2002.76,883.519ZM1501.13,850.586C1503.24,850.586 1504.8,849.891 1505.89,848.646C1507,847.391 1507.59,845.781 1507.59,843.789C1507.59,841.783 1506.99,840.199 1505.88,839.004C1504.8,837.709 1503.23,836.992 1501.13,836.992C1499.14,836.992 1497.58,837.65 1496.42,838.873C1495.31,839.998 1494.67,841.619 1494.67,843.789C1494.67,845.94 1495.29,847.585 1496.41,848.772C1496.42,848.786 1496.43,848.799 1496.45,848.812C1497.59,849.96 1499.14,850.586 1501.13,850.586ZM1660.01,850.586C1662.11,850.586 1663.68,849.891 1664.77,848.646C1665.87,847.391 1666.47,845.781 1666.47,843.789C1666.47,841.783 1665.86,840.199 1664.76,839.004C1663.67,837.709 1662.1,836.992 1660.01,836.992C1658.01,836.992 1656.45,837.65 1655.3,838.873C1654.18,839.998 1653.55,841.619 1653.55,843.789C1653.55,845.94 1654.17,847.585 1655.28,848.772C1655.29,848.786 1655.31,848.799 1655.32,848.812C1656.47,849.96 1658.02,850.586 1660.01,850.586ZM1734.43,850.586C1736.53,850.586 1738.1,849.891 1739.19,848.646C1740.3,847.391 1740.89,845.781 1740.89,843.789C1740.89,841.783 1740.29,840.199 1739.18,839.004C1738.09,837.709 1736.52,836.992 1734.43,836.992C1732.43,836.992 1730.87,837.65 1729.72,838.873C1728.61,839.998 1727.97,841.619 1727.97,843.789C1727.97,845.94 1728.59,847.585 1729.7,848.772C1729.72,848.786 1729.73,848.799 1729.74,848.812C1730.89,849.96 1732.44,850.586 1734.43,850.586ZM1632.44,845.529C1634.55,845.529 1636.12,844.834 1637.21,843.589C1638.31,842.334 1638.9,840.724 1638.9,838.732C1638.9,836.726 1638.3,835.142 1637.2,833.947C1636.11,832.652 1634.54,831.935 1632.44,831.935C1630.45,831.935 1628.89,832.593 1627.74,833.816C1626.62,834.941 1625.99,836.563 1625.99,838.732C1625.99,840.883 1626.61,842.529 1627.72,843.715C1627.73,843.729 1627.75,843.742 1627.76,843.755C1628.91,844.903 1630.45,845.529 1632.44,845.529ZM1617.86,845.529C1619.85,845.529 1621.4,844.903 1622.55,843.755C1622.56,843.742 1622.58,843.729 1622.59,843.715C1623.7,842.529 1624.32,840.883 1624.32,838.732C1624.32,836.561 1623.68,834.939 1622.57,833.811C1621.41,832.592 1619.86,831.935 1617.86,831.935C1616.15,831.935 1614.66,832.466 1613.39,833.512C1613.37,833.523 1613.36,833.534 1613.35,833.546C1612.13,834.607 1611.4,836.306 1611.4,838.732C1611.4,841.158 1612.13,842.857 1613.35,843.919C1613.36,843.93 1613.37,843.941 1613.39,843.952C1614.66,844.998 1616.15,845.529 1617.86,845.529Z" style="fill:url(#_Radial13);fill-rule:nonzero;"/>
                </g>
            </g>
        </g>
    </g>
    <defs>
        <radialGradient id="_Radial1" cx="0" cy="0" r="1" gradientUnits="userSpaceOnUse" gradientTransform="matrix(115.412,242.13,-246.329,113.445,250.427,177.682)"><stop offset="0" style="stop-color:rgb(17,164,255);stop-opacity:1"/><stop offset="1" style="stop-color:rgb(73,19,142);stop-opacity:1"/></radialGradient>
        <radialGradient id="_Radial2" cx="0" cy="0" r="1" gradientUnits="userSpaceOnUse" gradientTransform="matrix(-115.412,242.13,246.329,113.445,252.412,177.682)"><stop offset="0" style="stop-color:rgb(17,164,255);stop-opacity:1"/><stop offset="1" style="stop-color:rgb(73,19,142);stop-opacity:1"/></radialGradient>
        <radialGradient id="_Radial3" cx="0" cy="0" r="1" gradientUnits="userSpaceOnUse" gradientTransform="matrix(115.412,242.13,-246.329,113.445,250.427,177.682)"><stop offset="0" style="stop-color:rgb(17,164,255);stop-opacity:1"/><stop offset="1" style="stop-color:rgb(73,19,142);stop-opacity:1"/></radialGradient>
        <radialGradient id="_Radial4" cx="0" cy="0" r="1" gradientUnits="userSpaceOnUse" gradientTransform="matrix(115.412,242.13,-246.329,113.445,250.427,177.682)"><stop offset="0" style="stop-color:rgb(17,164,255);stop-opacity:1"/><stop offset="1" style="stop-color:rgb(73,19,142);stop-opacity:1"/></radialGradient>
        <radialGradient id="_Radial5" cx="0" cy="0" r="1" gradientUnits="userSpaceOnUse" gradientTransform="matrix(386.201,824.284,-824.283,386.202,535.872,284.012)"><stop offset="0" style="stop-color:rgb(17,164,255);stop-opacity:1"/><stop offset="1" style="stop-color:rgb(73,19,142);stop-opacity:1"/></radialGradient>
        <radialGradient id="_Radial6" cx="0" cy="0" r="1" gradientUnits="userSpaceOnUse" gradientTransform="matrix(115.412,242.13,-246.329,113.445,250.427,177.682)"><stop offset="0" style="stop-color:rgb(17,164,255);stop-opacity:1"/><stop offset="1" style="stop-color:rgb(73,19,142);stop-opacity:1"/></radialGradient>
        <radialGradient id="_Radial7" cx="0" cy="0" r="1" gradientUnits="userSpaceOnUse" gradientTransform="matrix(115.412,242.13,-246.329,113.445,252.718,181.375)"><stop offset="0" style="stop-color:rgb(17,164,255);stop-opacity:1"/><stop offset="1" style="stop-color:rgb(73,19,142);stop-opacity:1"/></radialGradient>
        <radialGradient id="_Radial8" cx="0" cy="0" r="1" gradientUnits="userSpaceOnUse" gradientTransform="matrix(321.95,687.151,-687.149,321.951,530.166,320.859)"><stop offset="0" style="stop-color:rgb(17,164,255);stop-opacity:1"/><stop offset="1" style="stop-color:rgb(73,19,142);stop-opacity:1"/></radialGradient>
        <radialGradient id="_Radial9" cx="0" cy="0" r="1" gradientUnits="userSpaceOnUse" gradientTransform="matrix(321.95,687.151,-687.149,321.951,536.559,265.189)"><stop offset="0" style="stop-color:rgb(17,164,255);stop-opacity:1"/><stop offset="1" style="stop-color:rgb(73,19,142);stop-opacity:1"/></radialGradient>
        <radialGradient id="_Radial10" cx="0" cy="0" r="1" gradientUnits="userSpaceOnUse" gradientTransform="matrix(321.95,687.151,-687.149,321.951,849.049,265.189)"><stop offset="0" style="stop-color:rgb(17,164,255);stop-opacity:1"/><stop offset="1" style="stop-color:rgb(73,19,142);stop-opacity:1"/></radialGradient>
        <radialGradient id="_Radial11" cx="0" cy="0" r="1" gradientUnits="userSpaceOnUse" gradientTransform="matrix(354.496,756.615,-756.613,354.496,1716.95,224.374)"><stop offset="0" style="stop-color:rgb(17,164,255);stop-opacity:1"/><stop offset="1" style="stop-color:rgb(73,19,142);stop-opacity:1"/></radialGradient>
        <radialGradient id="_Radial12" cx="0" cy="0" r="1" gradientUnits="userSpaceOnUse" gradientTransform="matrix(-354.496,756.615,756.613,354.496,1716.95,224.374)"><stop offset="0" style="stop-color:rgb(17,164,255);stop-opacity:1"/><stop offset="1" style="stop-color:rgb(73,19,142);stop-opacity:1"/></radialGradient>
        <radialGradient id="_Radial13" cx="0" cy="0" r="1" gradientUnits="userSpaceOnUse" gradientTransform="matrix(354.496,756.615,-756.613,354.496,1720,323.343)"><stop offset="0" style="stop-color:rgb(17,164,255);stop-opacity:1"/><stop offset="1" style="stop-color:rgb(73,19,142);stop-opacity:1"/></radialGradient>
    </defs>
</svg>
